# xmcd
#
# Track frame offsets:
#   150
#   20852
#   40725
#   60025
#   78120
#   94476
#   114990
#   134899
#   152555
#   169254
#   196394
#   217627
#   238460
#
# Disc length: 3526 seconds
#
# Revision: 0
# Processed by: cddbd v1.5.2PL0 Copyright (c) Steve Scherf et al.
# Submitted via: uFREEDB ActiveX Control 1.5
#
DISCID=ac0dc40d
DTITLE=ROSA PASSOS - SAMBA DOBRADO
DYEAR=1900
DGENRE=Blues
TTITLE0=PEDRO BRASIL
TTITLE1=LINHA DO EQUADOR
TTITLE2=MAÇA
TTITLE3=FALTANDO UMA PEDAÇO
TTITLE4=CAPIM
TTITLE5=PETALA
TTITLE6=LEI
TTITLE7=PARA RAIO
TTITLE8=CIGANO
TTITLE9=SAMBA DOBRADO
TTITLE10=FATO CONSUMADO
TTITLE11=SERRADO
TTITLE12=DOCE MENESTREL
EXTD=
EXTT0=
EXTT1=
EXTT2=
EXTT3=
EXTT4=
EXTT5=
EXTT6=
EXTT7=
EXTT8=
EXTT9=
EXTT10=
EXTT11=
EXTT12=
PLAYORDER=
